<svg width="20" height="20" viewBox="0 0 20 20" fill="none" xmlns="http://www.w3.org/2000/svg">
<path d="M18.1667 11.6676C17.8215 13.3531 16.9636 14.8907 15.7104 16.0696C14.4572 17.2485 12.8702 18.011 11.1667 18.2526V16.5651C12.4248 16.3407 13.5921 15.7598 14.5299 14.8915C15.4676 14.0232 16.1364 12.904 16.4567 11.6667L18.1667 11.6676ZM3.54335 11.6676C3.8602 12.8905 4.51758 13.9984 5.4391 14.8625C6.36062 15.7267 7.50844 16.3116 8.74919 16.5492V18.2409C7.06245 17.9839 5.49508 17.2159 4.25845 16.0403C3.02182 14.8648 2.17541 13.3383 1.83335 11.6667H3.54335V11.6676ZM15 9.16675V10.8334H14.1667C13.3115 10.8334 12.489 11.1621 11.8693 11.7515C11.2497 12.3409 10.8803 13.1459 10.8375 14.0001L10.8334 14.1667V15.0001H9.16669V14.1667C9.16669 13.3115 8.83799 12.4891 8.24858 11.8694C7.65918 11.2498 6.85415 10.8803 6.00002 10.8376L5.83335 10.8334H5.00002V9.16675H15ZM10 1.66675C14.3209 1.66675 17.8742 4.95591 18.2917 9.16675H16.615C16.4117 7.55583 15.6275 6.07448 14.4095 5.00064C13.1916 3.92681 11.6237 3.33431 10 3.33431C8.37631 3.33431 6.80841 3.92681 5.5905 5.00064C4.37259 6.07448 3.58838 7.55583 3.38502 9.16675H1.70752C2.12585 4.95591 5.67919 1.66675 10 1.66675Z" fill="white"/>
</svg>
